<?xml version="1.0" encoding="utf-8"?>
<!-- Generator: Adobe Illustrator 27.5.0, SVG Export Plug-In . SVG Version: 6.00 Build 0)  -->
<svg version="1.1" xmlns="http://www.w3.org/2000/svg" xmlns:xlink="http://www.w3.org/1999/xlink" x="0px" y="0px"
	 viewBox="0 0 500 500" style="enable-background:new 0 0 500 500;" xml:space="preserve">
<g id="BACKGROUND">
	<g>
		<rect style="fill:#1D262D;" width="500" height="500"/>
	</g>
</g>
<g id="OBJECTS">
	
		<text transform="matrix(1 0 0 1 191.9731 363.0752)" style="fill:#F9FBFC; font-family:'Montserrat-Black'; font-size:27.6167px; letter-spacing:1;">WWW</text>
	<g>
		<g>
			<path style="fill:#F9FBFC;" d="M286.669,246.716c-0.499,12.184-3.263,24.022-8.24,35.294c6.499,2.936,12.594,6.65,18.186,11.099
				c12.003-12.749,18.959-28.982,19.891-46.392H286.669z"/>
			<path style="fill:#F9FBFC;" d="M267.287,286.32c-6.648-2.195-13.472-3.489-20.38-3.85v28.737
				C255.111,304.215,262.035,295.761,267.287,286.32z"/>
			<path style="fill:#F9FBFC;" d="M254.243,315.496c13.452-2.083,26.032-7.855,36.452-16.761
				c-4.889-3.777-10.179-6.958-15.813-9.482C269.545,299.11,262.54,308.005,254.243,315.496z"/>
			<path style="fill:#F9FBFC;" d="M287.517,184.096c-9.751-7.435-21.189-12.316-33.24-14.211
				c7.207,6.494,13.45,14.031,18.425,22.267C277.952,189.995,282.906,187.291,287.517,184.096z"/>
			<path style="fill:#F9FBFC;" d="M246.907,246.716v27.67c8.157,0.385,16.208,1.944,24.023,4.641
				c4.596-10.323,7.166-21.159,7.665-32.311H246.907z"/>
			<path style="fill:#F9FBFC;" d="M246.907,238.649h31.685c-0.575-12.711-3.856-25.218-9.604-36.57
				c-7.248,2.314-14.648,3.659-22.082,4.017V238.649z"/>
			<path style="fill:#F9FBFC;" d="M316.507,238.649c-1.027-18.599-9.13-36.166-22.661-49.138
				c-5.333,3.895-11.116,7.151-17.256,9.748c6.064,12.259,9.509,25.721,10.077,39.39H316.507z"/>
			<path style="fill:#F9FBFC;" d="M246.907,174.151v23.863c6.05-0.322,12.077-1.375,18.009-3.133
				C260.04,187.147,253.93,180.122,246.907,174.151z"/>
			<path style="fill:#F9FBFC;" d="M207.316,282.009c-4.977-11.272-7.741-23.109-8.24-35.294h-29.837
				c0.932,17.408,7.888,33.641,19.894,46.392C194.72,288.661,200.814,284.948,207.316,282.009z"/>
			<path style="fill:#F9FBFC;" d="M199.078,238.649c0.568-13.669,4.014-27.131,10.077-39.39c-6.14-2.597-11.923-5.853-17.257-9.748
				c-13.531,12.971-21.634,30.538-22.661,49.138H199.078z"/>
			<path style="fill:#F9FBFC;" d="M220.83,194.881c5.932,1.758,11.96,2.811,18.01,3.133V174.15
				C231.819,180.12,225.709,187.145,220.83,194.881z"/>
			<path style="fill:#F9FBFC;" d="M238.841,311.209V282.47c-6.91,0.361-13.735,1.655-20.383,3.85
				C223.71,295.762,230.635,304.217,238.841,311.209z"/>
			<path style="fill:#F9FBFC;" d="M238.841,246.716h-31.692c0.499,11.152,3.069,21.988,7.665,32.311
				c7.816-2.697,15.867-4.257,24.026-4.641V246.716z"/>
			<path style="fill:#F9FBFC;" d="M195.051,298.735c10.419,8.906,22.999,14.679,36.452,16.761
				c-8.298-7.491-15.302-16.385-20.641-26.242C205.227,291.779,199.937,294.959,195.051,298.735z"/>
			<path style="fill:#F9FBFC;" d="M238.841,206.097c-7.436-0.358-14.836-1.703-22.085-4.017c-5.748,11.351-9.028,23.859-9.604,36.57
				h31.688V206.097z"/>
			<path style="fill:#F9FBFC;" d="M231.471,169.885c-12.052,1.894-23.491,6.776-33.242,14.211c4.611,3.195,9.564,5.899,14.816,8.056
				C218.022,183.914,224.266,176.377,231.471,169.885z"/>
		</g>
		<g>
			<polygon style="fill:#F9FBFC;" points="330.762,300.965 294.215,270.883 300.172,317.842 310.935,311.904 320.982,330.115 
				330.047,325.115 319.999,306.903 			"/>
			
				<polygon style="fill:#F9FBFC;stroke:#1D262D;stroke-width:5;stroke-linecap:round;stroke-linejoin:round;stroke-miterlimit:10;" points="
				330.762,300.965 294.215,270.883 300.172,317.842 310.935,311.904 320.982,330.115 330.047,325.115 319.999,306.903 			"/>
		</g>
	</g>
</g>
<g id="DESIGNED_BY_FREEPIK">
	<g>
		<g id="XMLID_85_">
			<g id="XMLID_104_">
				<path id="XMLID_112_" style="fill:#F9FBFC;" d="M260.104,465.328c-0.432,0.443-0.803,0.931-1.108,1.453l-0.465-0.241
					c-0.067-0.298-0.349-0.503-0.659-0.466c-0.331,0.039-0.568,0.339-0.529,0.67c0.039,0.331,0.339,0.568,0.67,0.529
					c0.065-0.008,0.127-0.026,0.184-0.052l0.451,0.234c-0.251,0.554-0.433,1.139-0.539,1.744l0.747,0.132
					c0.23-1.306,0.85-2.507,1.792-3.473L260.104,465.328z"/>
				<path id="XMLID_111_" style="fill:#F9FBFC;" d="M265.592,463.026c-0.171,0-0.341,0.006-0.51,0.017l-0.074-0.626
					c0.188-0.149,0.296-0.389,0.266-0.645c-0.046-0.393-0.402-0.674-0.795-0.628c-0.393,0.046-0.674,0.402-0.628,0.795
					c0.03,0.254,0.189,0.461,0.405,0.564l0.073,0.624c-0.714,0.116-1.403,0.332-2.06,0.646l0.327,0.684
					c0.934-0.447,1.942-0.673,2.995-0.673c0.496,0,0.993,0.053,1.475,0.158l0.161-0.741
					C266.692,463.085,266.142,463.026,265.592,463.026z"/>
				<path id="XMLID_110_" style="fill:#F9FBFC;" d="M272.194,465.574c0.331-0.04,0.566-0.341,0.526-0.672
					c-0.04-0.331-0.341-0.566-0.672-0.526c-0.309,0.038-0.535,0.304-0.53,0.609l-0.416,0.363c-0.418-0.43-0.89-0.813-1.408-1.139
					l-0.404,0.641c1.134,0.715,2.021,1.726,2.563,2.925l0.69-0.313c-0.251-0.554-0.567-1.072-0.942-1.545l0.402-0.351
					C272.065,465.579,272.129,465.582,272.194,465.574z"/>
				<path id="XMLID_109_" style="fill:#F9FBFC;" d="M265.044,473.235c-0.386,0.023-0.775,0.035-1.157,0.035
					c-0.88,0-1.733-0.061-2.478-0.179c-0.39-0.062-0.846-0.155-1.27-0.292c1.046,1.861,3.069,3.125,5.388,3.125
					c2.855,0,5.262-1.916,5.95-4.504c-0.682,0.449-1.505,0.825-2.459,1.123C267.839,472.91,266.463,473.15,265.044,473.235z"/>
				<path id="XMLID_105_" style="fill:#F9FBFC;" d="M265.592,464.543c-3.352,0-6.08,2.666-6.08,5.944
					c0,0.425,0.046,0.849,0.137,1.261c0.673,0.483,2.706,0.89,5.348,0.731c2.879-0.173,5.297-0.957,6.672-2.159
					c-0.005-0.195-0.021-0.39-0.045-0.582C271.244,466.776,268.65,464.543,265.592,464.543z M263.432,471.057
					c-1.02,0-1.85-0.83-1.85-1.85c0-1.02,0.83-1.85,1.85-1.85c1.02,0,1.85,0.83,1.85,1.85
					C265.282,470.228,264.452,471.057,263.432,471.057z M268.17,470.149c-0.75,0-1.36-0.61-1.36-1.36s0.61-1.361,1.36-1.361
					c0.75,0,1.361,0.61,1.361,1.361S268.92,470.149,268.17,470.149z"/>
			</g>
			<path id="XMLID_102_" style="fill:#F9FBFC;" d="M281.595,466.41c-0.295-0.116-0.805-0.309-1.382-0.237
				c-0.551,0.069-0.844,0.341-0.844,1.007v0.866h2.228v1.717h-2.228v5.455h-1.932v-5.455h-1.34v-1.717h1.34v-0.888
				c0-1.68,0.896-2.783,2.568-2.783c0.643,0,1.157,0.122,1.59,0.308L281.595,466.41z"/>
			<path id="XMLID_100_" style="fill:#F9FBFC;" d="M286.298,469.742c-0.177-0.03-0.358-0.046-0.526-0.046
				c-0.896,0-1.51,0.548-1.51,1.614v3.908h-1.932v-7.172h1.873v0.785c0.451-0.673,1.14-0.977,2.021-0.977
				c0.414,0,0.848,0.128,1.094,0.337L286.298,469.742z"/>
			<path id="XMLID_97_" style="fill:#F9FBFC;" d="M293.965,471.62c0,0.222-0.015,0.489-0.037,0.651h-5.085
				c0.207,1.036,0.933,1.488,1.843,1.488c0.622,0,1.295-0.252,1.813-0.688l1.133,1.243c-0.814,0.748-1.85,1.088-3.057,1.088
				c-2.198,0-3.723-1.495-3.723-3.753c0-2.258,1.48-3.797,3.626-3.797C292.544,467.853,293.958,469.385,293.965,471.62z
				 M288.851,470.954h3.175c-0.177-0.918-0.733-1.436-1.562-1.436C289.554,469.518,289.021,470.066,288.851,470.954z"/>
			<path id="XMLID_94_" style="fill:#F9FBFC;" d="M301.618,471.62c0,0.222-0.015,0.489-0.037,0.651h-5.085
				c0.207,1.036,0.933,1.488,1.843,1.488c0.622,0,1.295-0.252,1.813-0.688l1.132,1.243c-0.814,0.748-1.85,1.088-3.057,1.088
				c-2.198,0-3.723-1.495-3.723-3.753c0-2.258,1.48-3.797,3.627-3.797C300.197,467.853,301.611,469.385,301.618,471.62z
				 M296.504,470.954h3.175c-0.178-0.918-0.733-1.436-1.562-1.436C297.207,469.518,296.674,470.066,296.504,470.954z"/>
			<path id="XMLID_91_" style="fill:#F9FBFC;" d="M309.964,471.627c0,2.154-1.495,3.775-3.471,3.775
				c-0.962,0-1.643-0.378-2.109-0.933v3.708h-1.924v-10.133h1.887v0.792c0.466-0.585,1.155-0.984,2.139-0.984
				C308.469,467.853,309.964,469.474,309.964,471.627z M304.287,471.627c0,1.132,0.748,1.976,1.843,1.976
				c1.14,0,1.85-0.881,1.85-1.976c0-1.095-0.71-1.976-1.85-1.976C305.035,469.651,304.287,470.495,304.287,471.627z"/>
			<path id="XMLID_88_" style="fill:#F9FBFC;" d="M313.068,465.699c0,0.696-0.54,1.229-1.236,1.229
				c-0.696,0-1.229-0.533-1.229-1.229c0-0.696,0.533-1.243,1.229-1.243C312.527,464.455,313.068,465.003,313.068,465.699z
				 M312.809,475.217h-1.932v-7.172h1.932V475.217z"/>
			<path id="XMLID_86_" style="fill:#F9FBFC;" d="M316.032,470.599l2.701-2.554h2.368l-3.479,3.375l3.501,3.797h-2.376l-2.716-2.901
				v2.901H314.1v-10.658h1.932V470.599z"/>
		</g>
		<g>
			<path style="fill:#F9FBFC;" d="M184.412,475.152v-1.055c-0.527,0.718-1.391,1.23-2.387,1.23c-1.846,0-3.149-1.406-3.149-3.706
				c0-2.256,1.289-3.721,3.149-3.721c0.952,0,1.816,0.469,2.387,1.245v-3.765h1.099v9.77H184.412z M184.412,473.233v-3.208
				c-0.395-0.615-1.245-1.143-2.124-1.143c-1.421,0-2.27,1.172-2.27,2.739c0,1.567,0.85,2.724,2.27,2.724
				C183.168,474.346,184.017,473.849,184.412,473.233z"/>
			<path style="fill:#F9FBFC;" d="M186.932,471.607c0-2.051,1.465-3.706,3.486-3.706c2.139,0,3.398,1.67,3.398,3.794v0.279h-5.727
				c0.088,1.333,1.025,2.446,2.549,2.446c0.805,0,1.626-0.322,2.182-0.893l0.527,0.718c-0.703,0.703-1.655,1.084-2.812,1.084
				C188.44,475.328,186.932,473.819,186.932,471.607z M190.403,468.81c-1.509,0-2.256,1.274-2.314,2.358h4.643
				C192.718,470.113,192.015,468.81,190.403,468.81z"/>
			<path style="fill:#F9FBFC;" d="M194.607,474.215l0.571-0.791c0.469,0.542,1.362,1.011,2.329,1.011c1.084,0,1.67-0.513,1.67-1.216
				c0-1.714-4.38-0.659-4.38-3.281c0-1.098,0.952-2.036,2.636-2.036c1.201,0,2.051,0.454,2.622,1.026l-0.513,0.762
				c-0.424-0.513-1.201-0.894-2.109-0.894c-0.967,0-1.567,0.483-1.567,1.113c0,1.552,4.38,0.527,4.38,3.281
				c0,1.187-0.952,2.138-2.783,2.138C196.306,475.328,195.325,474.976,194.607,474.215z"/>
			<path style="fill:#F9FBFC;" d="M201.477,466.334c0-0.41,0.337-0.747,0.732-0.747c0.41,0,0.747,0.337,0.747,0.747
				c0,0.41-0.337,0.732-0.747,0.732C201.814,467.066,201.477,466.744,201.477,466.334z M201.667,475.152v-7.075h1.099v7.075H201.667
				z"/>
			<path style="fill:#F9FBFC;" d="M204.582,476.968l0.556-0.82c0.586,0.703,1.289,0.967,2.3,0.967c1.172,0,2.27-0.571,2.27-2.124
				v-1.011c-0.513,0.718-1.377,1.26-2.373,1.26c-1.845,0-3.149-1.377-3.149-3.662c0-2.27,1.289-3.677,3.149-3.677
				c0.952,0,1.802,0.469,2.373,1.245v-1.069h1.098v6.87c0,2.344-1.641,3.076-3.369,3.076
				C206.237,478.023,205.417,477.789,204.582,476.968z M209.709,473.116v-3.091c-0.381-0.615-1.23-1.143-2.109-1.143
				c-1.421,0-2.27,1.128-2.27,2.695c0,1.553,0.849,2.695,2.27,2.695C208.478,474.273,209.328,473.731,209.709,473.116z"/>
			<path style="fill:#F9FBFC;" d="M217.413,475.152v-4.629c0-1.245-0.63-1.641-1.582-1.641c-0.865,0-1.685,0.527-2.095,1.099v5.17
				h-1.099v-7.075h1.099v1.025c0.498-0.586,1.464-1.201,2.519-1.201c1.48,0,2.256,0.747,2.256,2.285v4.966H217.413z"/>
			<path style="fill:#F9FBFC;" d="M219.932,471.607c0-2.051,1.465-3.706,3.486-3.706c2.139,0,3.398,1.67,3.398,3.794v0.279h-5.727
				c0.088,1.333,1.025,2.446,2.549,2.446c0.806,0,1.626-0.322,2.183-0.893l0.527,0.718c-0.703,0.703-1.655,1.084-2.812,1.084
				C221.441,475.328,219.932,473.819,219.932,471.607z M223.404,468.81c-1.509,0-2.256,1.274-2.314,2.358h4.643
				C225.718,470.113,225.015,468.81,223.404,468.81z"/>
			<path style="fill:#F9FBFC;" d="M233.35,475.152v-1.055c-0.527,0.718-1.392,1.23-2.388,1.23c-1.846,0-3.149-1.406-3.149-3.706
				c0-2.256,1.289-3.721,3.149-3.721c0.952,0,1.817,0.469,2.388,1.245v-3.765h1.098v9.77H233.35z M233.35,473.233v-3.208
				c-0.396-0.615-1.245-1.143-2.124-1.143c-1.421,0-2.27,1.172-2.27,2.739c0,1.567,0.849,2.724,2.27,2.724
				C232.105,474.346,232.954,473.849,233.35,473.233z"/>
			<path style="fill:#F9FBFC;" d="M239.692,475.152v-9.77h1.098v3.765c0.572-0.776,1.421-1.245,2.388-1.245
				c1.845,0,3.149,1.465,3.149,3.721c0,2.299-1.304,3.706-3.149,3.706c-0.996,0-1.86-0.513-2.388-1.23v1.055H239.692z
				 M242.9,474.346c1.436,0,2.285-1.157,2.285-2.724c0-1.568-0.85-2.739-2.285-2.739c-0.864,0-1.728,0.527-2.109,1.143v3.208
				C241.171,473.849,242.036,474.346,242.9,474.346z"/>
			<path style="fill:#F9FBFC;" d="M247.528,476.924c0.161,0.073,0.425,0.117,0.601,0.117c0.483,0,0.805-0.161,1.055-0.747
				l0.469-1.069l-2.959-7.148h1.187l2.358,5.8l2.344-5.8h1.201l-3.545,8.51c-0.425,1.025-1.143,1.421-2.08,1.435
				c-0.234,0-0.601-0.044-0.805-0.103L247.528,476.924z"/>
		</g>
	</g>
</g>
</svg>
